<?xml version="1.0" encoding="utf-8"?>
<!-- Generator: Adobe Illustrator 16.0.0, SVG Export Plug-In . SVG Version: 6.00 Build 0)  -->
<!DOCTYPE svg PUBLIC "-//W3C//DTD SVG 1.1//EN" "http://www.w3.org/Graphics/SVG/1.1/DTD/svg11.dtd">
<svg version="1.1" id="图层_1" xmlns="http://www.w3.org/2000/svg" xmlns:xlink="http://www.w3.org/1999/xlink" x="0px" y="0px"
	 width="28px" height="28px" viewBox="0 0 28 28" enable-background="new 0 0 28 28" xml:space="preserve">
<g>
	<polygon fill="none" points="742.518,32.652 728.15,21.307 727.738,22.018 726.889,21.848 724.631,36.135 725.609,36.33 
		727.826,22.313 742.014,33.518 	"/>
</g>
<path fill="#C9C9C9" d="M0.779,11.083l13.22-7.638l2.487,1.432V2.75h3.481v4.137l7.253,4.196H0.779z M23.939,25.25h-9.172v-5.371
	l-0.009-0.004h-2.608l-0.006,0.004v5.371h-8.21V11.886h20.002V25.25H23.939z M22.919,12.91h-0.007H4.956v11.308v0.009h6.169v-5.375
	h4.663v5.366l0.002,0.009h7.129V12.91z M20.869,17.58h-3.891v-3.682h3.891V17.58z M5.935,13.898h3.893v3.682H5.935V13.898z"/>
<path fill="#8AD30B" d="M16.83,25.691c0-0.508,0-9.406,0-9.756c0-0.453,0.459-0.791,0.911-0.525c0.362,0.211,7.623,4.5,8.243,4.869
	c0.408,0.238,0.399,0.814,0,1.055c-0.446,0.271-7.732,4.58-8.262,4.881C17.336,26.434,16.83,26.191,16.83,25.691z"/>
</svg>
