<?xml version="1.0" encoding="utf-8"?>
<!-- Generator: Adobe Illustrator 16.0.0, SVG Export Plug-In . SVG Version: 6.00 Build 0)  -->
<!DOCTYPE svg PUBLIC "-//W3C//DTD SVG 1.1//EN" "http://www.w3.org/Graphics/SVG/1.1/DTD/svg11.dtd">
<svg version="1.1" id="图层_1" xmlns="http://www.w3.org/2000/svg" xmlns:xlink="http://www.w3.org/1999/xlink" x="0px" y="0px"
	 width="28px" height="28px" viewBox="0 0 28 28" enable-background="new 0 0 28 28" xml:space="preserve">
<g>
	<polygon fill="none" points="742.518,32.652 728.15,21.307 727.738,22.018 726.889,21.848 724.631,36.135 725.609,36.33 
		727.826,22.313 742.014,33.518 	"/>
</g>
<g>
	<path fill="#C9C9C9" d="M6.375,5.89c0.605,0,11.245,0,11.664,0c0.541,0,0.945,0.447,0.628,0.89c-0.253,0.356-5.383,7.45-5.82,8.057
		c-0.289,0.398-0.974,0.39-1.263,0c-0.323-0.438-5.476-7.559-5.835-8.074C5.488,6.386,5.778,5.89,6.375,5.89z"/>
	<path fill="#C9C9C9" d="M10.998,9.781h2.431c0.271,0,0.487,0.218,0.487,0.486v12.641c0,0.27-0.216,0.489-0.487,0.489l-2.431-1.46
		c-0.268,0-0.485-0.219-0.485-0.486V10.267C10.513,9.999,10.73,9.781,10.998,9.781z"/>
</g>
<path fill="#8AD30B" d="M15.016,24.413c0-0.547,0-10.119,0-10.496c0-0.488,0.51-0.851,1.012-0.566
	c0.402,0.23,8.464,4.844,9.152,5.241c0.451,0.258,0.443,0.875,0,1.135c-0.496,0.289-8.586,4.93-9.173,5.254
	C15.578,25.213,15.016,24.952,15.016,24.413z"/>
</svg>
