<?xml version="1.0" encoding="utf-8"?>
<!-- Generator: Adobe Illustrator 16.0.0, SVG Export Plug-In . SVG Version: 6.00 Build 0)  -->
<!DOCTYPE svg PUBLIC "-//W3C//DTD SVG 1.1//EN" "http://www.w3.org/Graphics/SVG/1.1/DTD/svg11.dtd">
<svg version="1.1" id="图层_1" xmlns="http://www.w3.org/2000/svg" xmlns:xlink="http://www.w3.org/1999/xlink" x="0px" y="0px"
	 width="28px" height="28px" viewBox="0 0 28 28" enable-background="new 0 0 28 28" xml:space="preserve">
<g>
	<path fill="#8AD30B" d="M5.074,19.296L9.473,7.842h1.633l4.687,11.454h-1.726l-1.335-3.469H7.941l-1.258,3.469H5.074z
		 M8.379,14.593h3.883l-1.195-3.172c-0.365-0.963-0.635-1.755-0.813-2.375c-0.146,0.734-0.352,1.464-0.617,2.188L8.379,14.593z"/>
	<path fill="#8AD30B" d="M22.237,18.272c-0.521,0.442-1.022,0.755-1.504,0.938s-0.999,0.273-1.551,0.273
		c-0.911,0-1.612-0.223-2.102-0.668s-0.734-1.015-0.734-1.707c0-0.406,0.093-0.777,0.277-1.113s0.427-0.605,0.727-0.809
		s0.637-0.356,1.012-0.461c0.276-0.073,0.692-0.144,1.25-0.211c1.136-0.136,1.972-0.297,2.508-0.485
		c0.005-0.192,0.008-0.315,0.008-0.367c0-0.573-0.133-0.977-0.398-1.211c-0.359-0.317-0.894-0.477-1.602-0.477
		c-0.661,0-1.149,0.116-1.465,0.348c-0.315,0.232-0.548,0.642-0.699,1.23l-1.375-0.188c0.125-0.588,0.331-1.063,0.617-1.426
		c0.286-0.362,0.7-0.641,1.242-0.836s1.169-0.293,1.883-0.293c0.708,0,1.284,0.083,1.727,0.25c0.442,0.167,0.769,0.376,0.977,0.629
		c0.208,0.253,0.354,0.572,0.438,0.957c0.047,0.24,0.07,0.672,0.07,1.297v1.875c0,1.308,0.03,2.134,0.09,2.48
		s0.179,0.679,0.355,0.996h-1.469C22.373,19.004,22.279,18.663,22.237,18.272z M22.12,15.132c-0.511,0.208-1.276,0.386-2.297,0.531
		c-0.578,0.083-0.987,0.177-1.227,0.281s-0.425,0.257-0.555,0.457s-0.195,0.423-0.195,0.668c0,0.375,0.142,0.688,0.426,0.938
		s0.699,0.375,1.246,0.375c0.542,0,1.023-0.118,1.445-0.355s0.731-0.562,0.93-0.973c0.151-0.317,0.227-0.786,0.227-1.406V15.132z"/>
</g>
</svg>
