<?xml version="1.0" encoding="utf-8"?>
<!-- Generator: Adobe Illustrator 16.0.0, SVG Export Plug-In . SVG Version: 6.00 Build 0)  -->
<!DOCTYPE svg PUBLIC "-//W3C//DTD SVG 1.1//EN" "http://www.w3.org/Graphics/SVG/1.1/DTD/svg11.dtd">
<svg version="1.1" id="图层_1" xmlns="http://www.w3.org/2000/svg" xmlns:xlink="http://www.w3.org/1999/xlink" x="0px" y="0px"
	 width="28px" height="28px" viewBox="0 0 28 28" enable-background="new 0 0 28 28" xml:space="preserve">
<g>
	<g>
		<path fill="#8AD30B" d="M18.988,2.921H5.908c-0.984,0-1.783,0.799-1.783,1.783v18.435c0,0.984,0.799,1.782,1.783,1.782h13.08
			c0.986,0,1.785-0.798,1.785-1.782V4.704C20.773,3.72,19.975,2.921,18.988,2.921z M19.375,22.866c0,0.317-0.258,0.577-0.578,0.577
			H6.101c-0.318,0-0.577-0.26-0.577-0.577V4.976c0-0.319,0.258-0.577,0.577-0.577h12.696c0.32,0,0.578,0.258,0.578,0.577V22.866z"/>
	</g>
</g>
<path fill="#8AD30B" d="M7.421,16.832c0-0.538,0-9.963,0-10.333c0-0.48,0.502-0.838,0.997-0.556
	c0.398,0.226,8.332,4.766,9.009,5.158c0.446,0.252,0.438,0.861,0,1.117c-0.488,0.286-8.451,4.853-9.028,5.171
	C7.977,17.618,7.421,17.361,7.421,16.832z"/>
<path fill="#EA345F" d="M16.334,22.898l-1.428-1.428l2.49-2.489l-2.489-2.49l1.428-1.428l2.49,2.489l2.49-2.489l1.428,1.428
	l-2.49,2.49l2.489,2.489l-1.429,1.428l-2.488-2.489L16.334,22.898z"/>
</svg>
