<?xml version="1.0" encoding="utf-8"?>
<!-- Generator: Adobe Illustrator 16.0.0, SVG Export Plug-In . SVG Version: 6.00 Build 0)  -->
<!DOCTYPE svg PUBLIC "-//W3C//DTD SVG 1.1//EN" "http://www.w3.org/Graphics/SVG/1.1/DTD/svg11.dtd">
<svg version="1.1" id="图层_1" xmlns="http://www.w3.org/2000/svg" xmlns:xlink="http://www.w3.org/1999/xlink" x="0px" y="0px"
	 width="28px" height="28px" viewBox="0 0 28 28" enable-background="new 0 0 28 28" xml:space="preserve">
<path fill="#8AD30B" d="M21.625,15.354c0.039-0.438,0.041-0.884,0.001-1.33l2.5-1.542l-1.456-3.47l-2.798,0.75
	c-0.31-0.372-0.653-0.712-1.022-1.013l0.653-2.757L16.02,4.566l-1.41,2.443c-0.499-0.045-1.004-0.04-1.512,0.015L11.645,4.67
	L8.174,6.125l0.727,2.717C8.547,9.147,8.222,9.478,7.933,9.837L5.26,9.1l-1.426,3.485l2.409,1.398
	c-0.048,0.509-0.044,1.025,0.012,1.544l-2.484,1.412l1.456,3.471l2.792-0.74c0.313,0.372,0.659,0.706,1.031,1.012l-0.787,2.854
	l3.484,1.423l1.491-2.568c0.453,0.041,0.911,0.043,1.37,0.002l1.494,2.631l3.473-1.455l-0.766-2.883
	c0.387-0.314,0.74-0.662,1.053-1.041l2.943,0.695l1.424-3.482L21.625,15.354z M15.405,18.295c-2.015,0.842-4.332-0.105-5.176-2.119
	c-0.846-2.011,0.103-4.329,2.116-5.174c2.014-0.844,4.331,0.103,5.177,2.117C18.366,15.132,17.42,17.449,15.405,18.295z"/>
</svg>
