<?xml version="1.0" encoding="utf-8"?>
<!-- Generator: Adobe Illustrator 16.0.0, SVG Export Plug-In . SVG Version: 6.00 Build 0)  -->
<!DOCTYPE svg PUBLIC "-//W3C//DTD SVG 1.1//EN" "http://www.w3.org/Graphics/SVG/1.1/DTD/svg11.dtd">
<svg version="1.1" id="图层_1" xmlns="http://www.w3.org/2000/svg" xmlns:xlink="http://www.w3.org/1999/xlink" x="0px" y="0px"
	 width="28px" height="28px" viewBox="0 0 28 28" enable-background="new 0 0 28 28" xml:space="preserve">
<path fill="#8AD30B" d="M24.385,15.886v-4.639h-2.67c-0.137-0.438-0.315-0.856-0.524-1.256L23.082,8.1l-3.28-3.28L17.91,6.711
	c-0.399-0.209-0.818-0.388-1.255-0.524v-2.67h-4.639v2.67c-0.438,0.138-0.856,0.316-1.257,0.525L8.87,4.821l-3.28,3.28l1.891,1.891
	c-0.208,0.399-0.387,0.817-0.524,1.254h-2.67v4.639h2.671c0.137,0.437,0.315,0.854,0.524,1.253L5.59,19.031l3.28,3.28l1.892-1.892
	c0.399,0.209,0.817,0.388,1.255,0.524v2.671h4.639v-2.671c0.437-0.137,0.854-0.315,1.254-0.523l1.893,1.892l3.279-3.281
	l-1.891-1.891c0.208-0.399,0.388-0.818,0.524-1.255H24.385z M14.336,18.342c-2.638,0-4.776-2.139-4.776-4.776
	s2.138-4.776,4.776-4.776c2.638,0,4.776,2.139,4.776,4.776S16.974,18.342,14.336,18.342z"/>
</svg>
