<?xml version="1.0" encoding="utf-8"?>
<!-- Generator: Adobe Illustrator 16.0.0, SVG Export Plug-In . SVG Version: 6.00 Build 0)  -->
<!DOCTYPE svg PUBLIC "-//W3C//DTD SVG 1.1//EN" "http://www.w3.org/Graphics/SVG/1.1/DTD/svg11.dtd">
<svg version="1.1" id="图层_1" xmlns="http://www.w3.org/2000/svg" xmlns:xlink="http://www.w3.org/1999/xlink" x="0px" y="0px"
	 width="28px" height="28px" viewBox="0 0 28 28" enable-background="new 0 0 28 28" xml:space="preserve">
<g>
	<polygon fill="none" points="742.518,32.652 728.15,21.307 727.738,22.018 726.889,21.848 724.631,36.135 725.609,36.33 
		727.826,22.313 742.014,33.518 	"/>
</g>
<g>
	<g>
		<path fill-rule="evenodd" clip-rule="evenodd" fill="#8AD30B" d="M6.742,11.883c-1.169,0-2.117,0.948-2.117,2.117
			c0,1.168,0.948,2.117,2.117,2.117c1.169,0,2.117-0.949,2.117-2.117C8.859,12.831,7.911,11.883,6.742,11.883z M14,11.883
			c-1.169,0-2.117,0.948-2.117,2.117c0,1.168,0.948,2.117,2.117,2.117c1.169,0,2.117-0.949,2.117-2.117
			C16.117,12.831,15.169,11.883,14,11.883z M21.258,11.883c-1.169,0-2.116,0.948-2.116,2.117c0,1.168,0.947,2.117,2.116,2.117
			s2.117-0.949,2.117-2.117C23.375,12.831,22.427,11.883,21.258,11.883z"/>
	</g>
</g>
</svg>
