<?xml version="1.0" encoding="utf-8"?>
<!-- Generator: Adobe Illustrator 16.0.0, SVG Export Plug-In . SVG Version: 6.00 Build 0)  -->
<!DOCTYPE svg PUBLIC "-//W3C//DTD SVG 1.1//EN" "http://www.w3.org/Graphics/SVG/1.1/DTD/svg11.dtd">
<svg version="1.1" id="图层_1" xmlns="http://www.w3.org/2000/svg" xmlns:xlink="http://www.w3.org/1999/xlink" x="0px" y="0px"
	 width="28px" height="28px" viewBox="0 0 28 28" enable-background="new 0 0 28 28" xml:space="preserve">
<g>
	<polygon fill="none" points="742.518,32.652 728.15,21.307 727.738,22.018 726.889,21.848 724.631,36.135 725.609,36.33 
		727.826,22.313 742.014,33.518 	"/>
</g>
<g>
	<g>
		<path fill="#C9C9C9" d="M14.116,2.531L9.26,4.564l5.143,2.857l4.57-2.571L14.116,2.531z M8.403,11.42l5.142,2.857V8.563
			L8.403,5.707V11.42z M14.687,8.563v5.714l5.143-2.857V5.707L14.687,8.563z"/>
	</g>
</g>
<g>
	<g>
		<path fill="#C9C9C9" d="M7.512,12.612l-4.407,2.399l4.693,3.102l4.57-2.571L7.512,12.612z M2.257,21.959l4.684,3.01v-5.714
			l-4.684-3.434V21.959z M8.083,19.255v5.714l5.142-2.856v-5.714L8.083,19.255z"/>
	</g>
</g>
<g>
	<g>
		<path fill="#C9C9C9" d="M20.719,12.612l-4.856,2.644l5.143,2.857l4.153-2.823L20.719,12.612z M15.005,22.112l5.143,2.856v-5.714
			l-5.143-2.856V22.112z M21.29,19.255v5.714l4.446-2.823l0.006-6.092L21.29,19.255z"/>
	</g>
</g>
</svg>
