<?xml version="1.0" encoding="utf-8"?>
<!-- Generator: Adobe Illustrator 16.0.0, SVG Export Plug-In . SVG Version: 6.00 Build 0)  -->
<!DOCTYPE svg PUBLIC "-//W3C//DTD SVG 1.1//EN" "http://www.w3.org/Graphics/SVG/1.1/DTD/svg11.dtd">
<svg version="1.1" id="图层_1" xmlns="http://www.w3.org/2000/svg" xmlns:xlink="http://www.w3.org/1999/xlink" x="0px" y="0px"
	 width="28px" height="28px" viewBox="0 0 28 28" enable-background="new 0 0 28 28" xml:space="preserve">
<g>
	<polygon fill="none" points="742.518,32.652 728.15,21.307 727.738,22.018 726.889,21.848 724.631,36.135 725.609,36.33 
		727.826,22.313 742.014,33.518 	"/>
</g>
<polygon fill="#8AD30B" points="6.292,8.538 6.292,8.538 6.292,8.538 6.292,8.538 6.292,6.208 6.292,6.208 6.292,6.208 6.292,6.208 
	"/>
<path fill="#8AD30B" d="M23.984,3.542H4.888C3.618,3.541,2.79,4.369,2.79,5.389v18.48c0,1.021,0.828,1.847,2.098,1.848h19.096
	c0.771-0.001,1.599-0.826,1.599-1.848V5.389C25.582,4.369,24.755,3.541,23.984,3.542z M23.583,21.883
	c0,0.826-0.687,1.492-1.327,1.492H6.406c-1.054,0-1.741-0.666-1.741-1.492V6.958c0-0.824,0.687-1.493,1.741-1.492h15.85
	c0.64,0,1.326,0.668,1.327,1.492V21.883z"/>
<g>
	<line fill="none" stroke="#8AD30B" stroke-width="2" stroke-miterlimit="10" x1="14.187" y1="4.729" x2="14.187" y2="6.729"/>
	
		<line fill="none" stroke="#8AD30B" stroke-width="2" stroke-miterlimit="10" stroke-dasharray="3.5602,1.7801" x1="14.187" y1="8.509" x2="14.187" y2="23.641"/>
	<line fill="none" stroke="#8AD30B" stroke-width="2" stroke-miterlimit="10" x1="14.187" y1="24.529" x2="14.187" y2="25.529"/>
</g>
</svg>
