<?xml version="1.0" encoding="utf-8"?>
<!-- Generator: Adobe Illustrator 16.0.0, SVG Export Plug-In . SVG Version: 6.00 Build 0)  -->
<!DOCTYPE svg PUBLIC "-//W3C//DTD SVG 1.1//EN" "http://www.w3.org/Graphics/SVG/1.1/DTD/svg11.dtd">
<svg version="1.1" id="图层_1" xmlns="http://www.w3.org/2000/svg" xmlns:xlink="http://www.w3.org/1999/xlink" x="0px" y="0px"
	 width="28px" height="28px" viewBox="0 0 28 28" enable-background="new 0 0 28 28" xml:space="preserve">
<g>
	<g>
		<path fill="none" stroke="#8AD30B" stroke-miterlimit="10" stroke-dasharray="3.911,1.9555" d="M23.749,4.063H5.816
			C4.624,4.062,3.847,4.839,3.847,5.797v17.688c0,0.959,0.777,1.733,1.969,1.734h17.933c0.726-0.001,1.501-0.775,1.501-1.734V5.797
			C25.25,4.839,24.475,4.062,23.749,4.063z"/>
	</g>
</g>
<path fill="#C9C9C9" d="M17.338,18.641l-1.457-1.457l2.541-2.543l-2.541-2.542l1.457-1.458l2.543,2.543l2.543-2.543l1.459,1.458
	l-2.543,2.542l2.541,2.543l-1.457,1.457L19.881,16.1L17.338,18.641z"/>
<path fill="#8AD30B" d="M15.151,3.542H4.888C3.618,3.541,2.79,4.369,2.79,5.389v18.48c0,1.021,0.828,1.847,2.098,1.848h10.263
	v-2.342V3.542z"/>
</svg>
