<?xml version="1.0" encoding="utf-8"?>
<!-- Generator: Adobe Illustrator 16.0.0, SVG Export Plug-In . SVG Version: 6.00 Build 0)  -->
<!DOCTYPE svg PUBLIC "-//W3C//DTD SVG 1.1//EN" "http://www.w3.org/Graphics/SVG/1.1/DTD/svg11.dtd">
<svg version="1.1" id="图层_1" xmlns="http://www.w3.org/2000/svg" xmlns:xlink="http://www.w3.org/1999/xlink" x="0px" y="0px"
	 width="28px" height="28px" viewBox="0 0 28 28" enable-background="new 0 0 28 28" xml:space="preserve">
<path fill="#8AD30B" d="M18.5,3.662c0,0.463-0.375,0.838-0.838,0.838h-6.324c-0.463,0-0.838-0.375-0.838-0.838V3.338
	c0-0.463,0.375-0.838,0.838-0.838h6.324c0.463,0,0.838,0.375,0.838,0.838V3.662z"/>
<path fill="#8AD30B" d="M22.438,23.5C21.594,20.906,17.5,10.188,17.5,10.188V6.5h-6v4L6.625,22.984c0,0-0.844,3.516,2.969,3.516
	H19.5C19.5,26.5,22.844,26.094,22.438,23.5z M15.734,12.719c0.682,0,1.234,0.665,1.234,1.484c0,0.819-0.553,1.484-1.234,1.484
	S14.5,15.022,14.5,14.203C14.5,13.383,15.053,12.719,15.734,12.719z M12.266,14.063c0.526,0,0.953,0.539,0.953,1.203
	s-0.427,1.203-0.953,1.203s-0.953-0.539-0.953-1.203S11.739,14.063,12.266,14.063z M18.625,25.5H10.5c0,0-3.719,0.118-2.519-2.564
	l1.863-4.545c0.563-0.25,5.75-1.477,9.469,0.055l1.672,4.637C20.984,23.082,22.063,24.938,18.625,25.5z"/>
</svg>
