<?xml version="1.0" encoding="utf-8"?>
<!-- Generator: Adobe Illustrator 16.0.0, SVG Export Plug-In . SVG Version: 6.00 Build 0)  -->
<!DOCTYPE svg PUBLIC "-//W3C//DTD SVG 1.1//EN" "http://www.w3.org/Graphics/SVG/1.1/DTD/svg11.dtd">
<svg version="1.1" id="图层_1" xmlns="http://www.w3.org/2000/svg" xmlns:xlink="http://www.w3.org/1999/xlink" x="0px" y="0px"
	 width="28px" height="28px" viewBox="0 0 28 28" enable-background="new 0 0 28 28" xml:space="preserve">
<g>
	<polygon fill="none" points="742.518,32.652 728.15,21.307 727.738,22.018 726.889,21.848 724.631,36.135 725.609,36.33 
		727.826,22.313 742.014,33.518 	"/>
</g>
<g>
	<g>
		<path fill-rule="evenodd" clip-rule="evenodd" fill="#8AD30B" d="M21.587,7.896C20.838,5.807,9.365-2.14,4.108,10.994
			c0,0,7.208-7.297,14.239,0.632l-3.385,3.898h9.513V4.57L21.587,7.896z M9.652,16.376l3.385-3.896H3.524v10.953l2.889-3.326
			c0.103,1.084,9.853,10.683,17.192-2.952C23.605,17.154,16.684,24.304,9.652,16.376z"/>
	</g>
</g>
</svg>
