<?xml version="1.0" encoding="utf-8"?>
<!-- Generator: Adobe Illustrator 16.0.0, SVG Export Plug-In . SVG Version: 6.00 Build 0)  -->
<!DOCTYPE svg PUBLIC "-//W3C//DTD SVG 1.1//EN" "http://www.w3.org/Graphics/SVG/1.1/DTD/svg11.dtd">
<svg version="1.1" id="图层_1" xmlns="http://www.w3.org/2000/svg" xmlns:xlink="http://www.w3.org/1999/xlink" x="0px" y="0px"
	 width="28px" height="28px" viewBox="0 0 28 28" enable-background="new 0 0 28 28" xml:space="preserve">
<g>
	<polygon fill="none" points="742.518,32.652 728.15,21.307 727.738,22.018 726.889,21.848 724.631,36.135 725.609,36.33 
		727.826,22.313 742.014,33.518 	"/>
</g>
<path fill="#8AD30B" d="M7.404,21.811c0-0.813,0-15.041,0-15.599c0-0.725,0.758-1.264,1.504-0.84
	c0.601,0.342,12.578,7.197,13.6,7.786c0.674,0.383,0.66,1.301,0,1.689c-0.736,0.43-12.757,7.322-13.629,7.805
	C8.242,22.998,7.404,22.609,7.404,21.811z"/>
<path fill="#8AD30B" d="M21.328,18.318c-1.825,0-3.305,1.479-3.305,3.306c0,1.825,1.479,3.305,3.305,3.305
	c1.826,0,3.306-1.479,3.306-3.305C24.634,19.798,23.154,18.318,21.328,18.318z"/>
</svg>
