<?xml version="1.0" encoding="utf-8"?>
<!-- Generator: Adobe Illustrator 16.0.0, SVG Export Plug-In . SVG Version: 6.00 Build 0)  -->
<!DOCTYPE svg PUBLIC "-//W3C//DTD SVG 1.1//EN" "http://www.w3.org/Graphics/SVG/1.1/DTD/svg11.dtd">
<svg version="1.1" id="图层_1" xmlns="http://www.w3.org/2000/svg" xmlns:xlink="http://www.w3.org/1999/xlink" x="0px" y="0px"
	 width="28px" height="28px" viewBox="0 0 28 28" enable-background="new 0 0 28 28" xml:space="preserve">
<g>
	<polygon fill="none" points="742.518,32.652 728.15,21.307 727.738,22.018 726.889,21.848 724.631,36.135 725.609,36.33 
		727.826,22.313 742.014,33.518 	"/>
</g>
<g>
	<g>
		<path fill="#8AD30B" d="M19.216,11.75c-0.471-1.313-7.677-6.305-10.979,1.945c0,0,4.528-4.583,8.945,0.398l-2.127,2.448h5.977
			V9.66L19.216,11.75z M11.72,17.076l2.126-2.447H7.87v6.882l1.815-2.09c0.064,0.681,6.189,6.709,10.8-1.854
			C20.485,17.564,16.138,22.057,11.72,17.076z"/>
	</g>
</g>
<path fill="#8AD30B" d="M24.513,4.004H4.387c-0.813,0-1.473,0.66-1.473,1.473v18.044c0,0.814,0.66,1.474,1.473,1.474h20.125
	c0.815,0,1.474-0.659,1.474-1.474V5.477C25.986,4.664,25.328,4.004,24.513,4.004z M24.967,23.662H4.013L3.974,7.501h20.954
	L24.967,23.662z"/>
</svg>
