<?xml version="1.0" encoding="utf-8"?>
<!-- Generator: Adobe Illustrator 16.0.0, SVG Export Plug-In . SVG Version: 6.00 Build 0)  -->
<!DOCTYPE svg PUBLIC "-//W3C//DTD SVG 1.1//EN" "http://www.w3.org/Graphics/SVG/1.1/DTD/svg11.dtd">
<svg version="1.1" id="图层_1" xmlns="http://www.w3.org/2000/svg" xmlns:xlink="http://www.w3.org/1999/xlink" x="0px" y="0px"
	 width="28px" height="28px" viewBox="0 0 28 28" enable-background="new 0 0 28 28" xml:space="preserve">
<path fill="#8AD30B" d="M20.625,17.875c0,3.97-3.218,7.188-7.188,7.188l0,0c-3.97,0-7.188-3.218-7.188-7.188V9.688
	c0-3.97,3.218-7.188,7.188-7.188l0,0c3.97,0,7.188,3.218,7.188,7.188V17.875z M16.5,10.344c0-1.64-1.423-3.26-3.063-3.26l0,0
	c-1.64,0-2.875,1.621-2.875,3.26v7.125c0,1.64,1.235,3.156,2.875,3.156l0,0c1.64,0,3.063-1.517,3.063-3.156V10.344z"/>
</svg>
