<?xml version="1.0" encoding="utf-8"?>
<!-- Generator: Adobe Illustrator 16.0.0, SVG Export Plug-In . SVG Version: 6.00 Build 0)  -->
<!DOCTYPE svg PUBLIC "-//W3C//DTD SVG 1.1//EN" "http://www.w3.org/Graphics/SVG/1.1/DTD/svg11.dtd">
<svg version="1.1" id="图层_1" xmlns="http://www.w3.org/2000/svg" xmlns:xlink="http://www.w3.org/1999/xlink" x="0px" y="0px"
	 width="28px" height="28px" viewBox="0 0 28 28" enable-background="new 0 0 28 28" xml:space="preserve">
<path fill="#82BC11" d="M3.01,21.633c0-0.795,0-14.699,0-15.245c0-0.708,0.741-1.235,1.47-0.821
	c0.586,0.334,12.292,7.034,13.292,7.61c0.657,0.375,0.644,1.271,0,1.65c-0.721,0.42-12.469,7.159-13.321,7.629
	C3.828,22.794,3.01,22.415,3.01,21.633z"/>
<path fill="#8AD30B" d="M10.952,21.633c0-0.795,0-14.698,0-15.245c0-0.708,0.741-1.235,1.47-0.821
	c0.586,0.334,12.293,7.034,13.292,7.61c0.657,0.374,0.645,1.271,0,1.649c-0.721,0.42-12.468,7.159-13.321,7.629
	C11.77,22.794,10.952,22.415,10.952,21.633z"/>
</svg>
