<?xml version="1.0" encoding="utf-8"?>
<!-- Generator: Adobe Illustrator 16.0.0, SVG Export Plug-In . SVG Version: 6.00 Build 0)  -->
<!DOCTYPE svg PUBLIC "-//W3C//DTD SVG 1.1//EN" "http://www.w3.org/Graphics/SVG/1.1/DTD/svg11.dtd">
<svg version="1.1" id="图层_1" xmlns="http://www.w3.org/2000/svg" xmlns:xlink="http://www.w3.org/1999/xlink" x="0px" y="0px"
	 width="28px" height="28px" viewBox="0 0 28 28" enable-background="new 0 0 28 28" xml:space="preserve">
<path fill-rule="evenodd" clip-rule="evenodd" fill="#C9C9C9" d="M17.033,9.299l2.302-0.617l1.198,2.855l-2.057,1.269
	c0.033,0.367,0.031,0.733-0.001,1.094l2.142,1.238l-1.172,2.864l-2.422-0.571c-0.257,0.312-0.55,0.597-0.866,0.855l0.63,2.372
	l-2.858,1.198l-1.228-2.164c-0.378,0.033-0.755,0.031-1.127-0.003l-1.227,2.114L7.48,20.633l0.648-2.349
	c-0.306-0.251-0.591-0.526-0.848-0.831l-2.297,0.607l-1.197-2.855l2.044-1.162c-0.046-0.426-0.049-0.852-0.009-1.271l-1.982-1.15
	L5.01,8.755l2.199,0.606c0.238-0.295,0.505-0.568,0.796-0.818L7.407,6.307l2.856-1.197l1.194,1.937
	c0.418-0.045,0.834-0.049,1.245-0.012l1.159-2.01l2.868,1.173l-0.537,2.269C16.495,8.714,16.777,8.993,17.033,9.299z M11.16,11.083
	c1.235-0.518,2.656,0.063,3.175,1.297c0.518,1.236-0.063,2.658-1.299,3.175c-1.235,0.517-2.656-0.063-3.174-1.3
	C9.344,13.023,9.925,11.601,11.16,11.083z"/>
<path fill="#8AD30B" d="M15.665,22.379c0-0.5,0-9.256,0-9.6c0-0.446,0.467-0.778,0.926-0.517c0.369,0.21,7.74,4.429,8.369,4.792
	c0.415,0.235,0.406,0.8,0,1.038c-0.452,0.265-7.851,4.509-8.388,4.804C16.18,23.109,15.665,22.871,15.665,22.379z"/>
</svg>
