<?xml version="1.0" encoding="utf-8"?>
<!-- Generator: Adobe Illustrator 16.0.0, SVG Export Plug-In . SVG Version: 6.00 Build 0)  -->
<!DOCTYPE svg PUBLIC "-//W3C//DTD SVG 1.1//EN" "http://www.w3.org/Graphics/SVG/1.1/DTD/svg11.dtd">
<svg version="1.1" id="图层_1" xmlns="http://www.w3.org/2000/svg" xmlns:xlink="http://www.w3.org/1999/xlink" x="0px" y="0px"
	 width="28px" height="28px" viewBox="0 0 28 28" enable-background="new 0 0 28 28" xml:space="preserve">
<g>
	<polygon fill="none" points="742.518,32.652 728.15,21.307 727.738,22.018 726.889,21.848 724.631,36.135 725.609,36.33 
		727.826,22.313 742.014,33.518 	"/>
</g>
<path fill="#EA345F" d="M7.604,24.063l-3.667-3.668L10.332,14L3.937,7.604l3.667-3.667L14,10.332l6.395-6.395l3.668,3.667L17.668,14
	l6.393,6.395l-3.666,3.666L14,17.668L7.604,24.063z"/>
<path fill-rule="evenodd" clip-rule="evenodd" fill="#FFE739" stroke="#EA345F" stroke-miterlimit="10" d="M25.815,25.438h-3.412
	v-2.594h3.412V25.438z M25.603,21.778h-3.08l-0.709-6.182v-3.368h4.498v3.368L25.603,21.778z"/>
</svg>
