<?xml version="1.0" encoding="utf-8"?>
<!-- Generator: Adobe Illustrator 16.0.0, SVG Export Plug-In . SVG Version: 6.00 Build 0)  -->
<!DOCTYPE svg PUBLIC "-//W3C//DTD SVG 1.1//EN" "http://www.w3.org/Graphics/SVG/1.1/DTD/svg11.dtd">
<svg version="1.1" id="图层_1" xmlns="http://www.w3.org/2000/svg" xmlns:xlink="http://www.w3.org/1999/xlink" x="0px" y="0px"
	 width="28px" height="28px" viewBox="0 0 28 28" enable-background="new 0 0 28 28" xml:space="preserve">
<g>
	<polygon fill="none" points="742.518,32.652 728.15,21.307 727.738,22.018 726.889,21.848 724.631,36.135 725.609,36.33 
		727.826,22.313 742.014,33.518 	"/>
</g>
<path fill="#DCB75E" d="M6.563,5.342C1.696,9.445,1.074,16.718,5.176,21.586c4.104,4.871,11.374,5.492,16.246,1.387
	c4.867-4.102,5.49-11.373,1.385-16.243C18.704,1.861,11.432,1.242,6.563,5.342z M7.357,19.749C4.576,16.447,4.68,11.675,7.409,8.508
	l11.038,13.1C14.857,23.761,10.14,23.05,7.357,19.749z M20.576,19.811L9.537,6.711c3.59-2.15,8.306-1.446,11.088,1.856
	C23.409,11.869,23.305,16.639,20.576,19.811z"/>
</svg>
