<?xml version="1.0" encoding="utf-8"?>
<!-- Generator: Adobe Illustrator 16.0.0, SVG Export Plug-In . SVG Version: 6.00 Build 0)  -->
<!DOCTYPE svg PUBLIC "-//W3C//DTD SVG 1.1//EN" "http://www.w3.org/Graphics/SVG/1.1/DTD/svg11.dtd">
<svg version="1.1" id="图层_1" xmlns="http://www.w3.org/2000/svg" xmlns:xlink="http://www.w3.org/1999/xlink" x="0px" y="0px"
	 width="28px" height="28px" viewBox="0 0 28 28" enable-background="new 0 0 28 28" xml:space="preserve">
<g>
	<polygon fill="none" points="742.518,32.652 728.15,21.307 727.738,22.018 726.889,21.848 724.631,36.135 725.609,36.33 
		727.826,22.313 742.014,33.518 	"/>
</g>
<g>
	<g>
		<path fill="#C9C9C9" d="M21.979,0.533H6.022c-1.335,0-2.428,1.414-2.428,3.142v20.649c0,1.729,1.093,3.143,2.428,3.143h15.957
			c1.336,0,2.429-1.412,2.429-3.143V3.675C24.406,1.947,23.313,0.533,21.979,0.533z M23.182,24.406c0,1.015-0.82,1.837-1.836,1.837
			H6.654c-1.014,0-1.836-0.822-1.836-1.837V3.594c0-1.014,0.822-1.836,1.836-1.836h14.692c1.014,0,1.836,0.822,1.836,1.836V24.406
			L23.182,24.406z M17.124,7.715l3.61-3.007l-2.143-1.726l-0.064,0.067l-5.97,6.219c-0.087-0.283-0.631-2.035-0.631-2.035
			L9.437,7.659l2.627,4.271L17.124,7.715 M12.557,20.898c-0.087-0.281-0.631-2.034-0.631-2.034L9.437,19.29l2.627,4.271l5.06-4.215
			l0.411-0.343l3.199-2.665l-2.143-1.727l-0.064,0.068L12.557,20.898z"/>
	</g>
</g>
</svg>
