<?xml version="1.0" encoding="utf-8"?>
<!-- Generator: Adobe Illustrator 16.0.0, SVG Export Plug-In . SVG Version: 6.00 Build 0)  -->
<!DOCTYPE svg PUBLIC "-//W3C//DTD SVG 1.1//EN" "http://www.w3.org/Graphics/SVG/1.1/DTD/svg11.dtd">
<svg version="1.1" id="图层_1" xmlns="http://www.w3.org/2000/svg" xmlns:xlink="http://www.w3.org/1999/xlink" x="0px" y="0px"
	 width="28px" height="28px" viewBox="0 0 28 28" enable-background="new 0 0 28 28" xml:space="preserve">
<g>
	<path fill="#8AD30B" d="M9.646,19.296L6.987,9.274h1.36l1.524,6.57c0.164,0.688,0.305,1.372,0.424,2.051
		c0.255-1.071,0.406-1.688,0.451-1.853l1.907-6.768h1.6l1.435,5.072c0.36,1.258,0.62,2.441,0.779,3.548
		c0.128-0.634,0.295-1.36,0.5-2.181l1.572-6.44h1.332l-2.748,10.022h-1.277l-2.112-7.636c-0.178-0.638-0.283-1.03-0.314-1.176
		c-0.105,0.46-0.203,0.852-0.294,1.176L11,19.296H9.646z"/>
</g>
<rect x="6.5" y="20.5" fill="#8AD30B" width="14" height="2"/>
<rect x="6.5" y="6.5" fill="#8AD30B" width="14" height="2"/>
</svg>
