<?xml version="1.0" encoding="utf-8"?>
<!-- Generator: Adobe Illustrator 16.0.0, SVG Export Plug-In . SVG Version: 6.00 Build 0)  -->
<!DOCTYPE svg PUBLIC "-//W3C//DTD SVG 1.1//EN" "http://www.w3.org/Graphics/SVG/1.1/DTD/svg11.dtd">
<svg version="1.1" id="图层_1" xmlns="http://www.w3.org/2000/svg" xmlns:xlink="http://www.w3.org/1999/xlink" x="0px" y="0px"
	 width="28px" height="28px" viewBox="0 0 28 28" enable-background="new 0 0 28 28" xml:space="preserve">
<g>
	<polygon fill="none" points="742.518,32.652 728.15,21.307 727.738,22.018 726.889,21.848 724.631,36.135 725.609,36.33 
		727.826,22.313 742.014,33.518 	"/>
</g>
<path fill="#8AD30B" d="M21.431,7.201C17.605,3.375,11.378,3.374,7.552,7.199c-3.827,3.828-3.825,10.055,0.001,13.88
	c3.826,3.825,10.053,3.827,13.879,0C25.258,17.251,25.256,11.027,21.431,7.201z M11.235,19.262l-1.866-1.867l3.255-3.254
	l-3.256-3.256l1.868-1.868l3.256,3.256l3.256-3.256l1.866,1.867l-3.256,3.256l3.256,3.255l-1.867,1.867l-3.256-3.256L11.235,19.262z
	"/>
</svg>
