<?xml version="1.0" encoding="utf-8"?>
<!-- Generator: Adobe Illustrator 16.0.0, SVG Export Plug-In . SVG Version: 6.00 Build 0)  -->
<!DOCTYPE svg PUBLIC "-//W3C//DTD SVG 1.1//EN" "http://www.w3.org/Graphics/SVG/1.1/DTD/svg11.dtd">
<svg version="1.1" id="图层_1" xmlns="http://www.w3.org/2000/svg" xmlns:xlink="http://www.w3.org/1999/xlink" x="0px" y="0px"
	 width="28px" height="28px" viewBox="0 0 28 28" enable-background="new 0 0 28 28" xml:space="preserve">
<g>
	<g>
		<path fill-rule="evenodd" clip-rule="evenodd" fill="#8AD30B" d="M18.989,2.921H5.908c-0.984,0-1.783,0.799-1.783,1.783v18.434
			c0,0.985,0.799,1.783,1.783,1.783h13.081c0.985,0,1.784-0.798,1.784-1.783V4.704C20.773,3.72,19.975,2.921,18.989,2.921z
			 M19.375,22.866c0,0.318-0.258,0.577-0.578,0.577H6.101c-0.318,0-0.577-0.259-0.577-0.577V4.976c0-0.319,0.258-0.577,0.577-0.577
			h12.696c0.32,0,0.578,0.258,0.578,0.577V22.866z"/>
	</g>
</g>
<path fill="#EA345F" d="M15.455,26.255l-2.248-2.248l3.92-3.919l-3.919-3.92l2.248-2.248l3.92,3.92l3.92-3.92l2.248,2.248
	l-3.92,3.92l3.918,3.919l-2.248,2.247l-3.918-3.918L15.455,26.255z"/>
<rect x="7.313" y="6.188" fill-rule="evenodd" clip-rule="evenodd" fill="#8AD30B" width="9.063" height="2.966"/>
<rect x="7.313" y="10.955" fill-rule="evenodd" clip-rule="evenodd" fill="#8AD30B" width="5.137" height="2.966"/>
</svg>
