<?xml version="1.0" encoding="utf-8"?>
<!-- Generator: Adobe Illustrator 16.0.0, SVG Export Plug-In . SVG Version: 6.00 Build 0)  -->
<!DOCTYPE svg PUBLIC "-//W3C//DTD SVG 1.1//EN" "http://www.w3.org/Graphics/SVG/1.1/DTD/svg11.dtd">
<svg version="1.1" id="图层_1" xmlns="http://www.w3.org/2000/svg" xmlns:xlink="http://www.w3.org/1999/xlink" x="0px" y="0px"
	 width="28px" height="28px" viewBox="0 0 28 28" enable-background="new 0 0 28 28" xml:space="preserve">
<path fill-rule="evenodd" clip-rule="evenodd" fill="#8AD30B" d="M19.872,9.762l2.798-0.75l1.456,3.47l-2.5,1.542
	c0.04,0.446,0.038,0.892-0.001,1.33l2.604,1.503l-1.424,3.483l-2.943-0.696c-0.313,0.379-0.667,0.727-1.053,1.042l0.765,2.883
	l-3.473,1.455l-1.493-2.631c-0.459,0.041-0.917,0.039-1.37-0.003l-1.491,2.569l-3.484-1.423l0.787-2.854
	c-0.372-0.306-0.718-0.64-1.031-1.012L5.227,20.41l-1.456-3.471l2.484-1.411c-0.056-0.52-0.06-1.036-0.012-1.545l-2.409-1.398
	L5.26,9.1l2.673,0.737c0.289-0.359,0.614-0.69,0.968-0.995L8.174,6.125l3.471-1.455l1.452,2.354c0.508-0.055,1.014-0.06,1.513-0.015
	l1.409-2.443l3.484,1.426L18.85,8.749C19.219,9.05,19.562,9.39,19.872,9.762z M12.735,11.93c1.501-0.629,3.228,0.077,3.859,1.578
	c0.628,1.501-0.077,3.229-1.579,3.858c-1.501,0.628-3.228-0.078-3.858-1.579C10.527,14.288,11.234,12.56,12.735,11.93z"/>
</svg>
