<?xml version="1.0" encoding="utf-8"?>
<!-- Generator: Adobe Illustrator 16.0.0, SVG Export Plug-In . SVG Version: 6.00 Build 0)  -->
<!DOCTYPE svg PUBLIC "-//W3C//DTD SVG 1.1//EN" "http://www.w3.org/Graphics/SVG/1.1/DTD/svg11.dtd">
<svg version="1.1" id="图层_1" xmlns="http://www.w3.org/2000/svg" xmlns:xlink="http://www.w3.org/1999/xlink" x="0px" y="0px"
	 width="28px" height="28px" viewBox="0 0 28 28" enable-background="new 0 0 28 28" xml:space="preserve">
<path fill="#8AD30B" d="M10.11,18.56c-1.747,1.748-4.578,1.748-6.325,0l0,0c-1.746-1.749-1.748-4.578,0-6.326l8.45-8.449
	c1.747-1.747,4.58-1.747,6.327,0l0,0c1.746,1.746,1.746,4.579,0,6.326L10.11,18.56z"/>
<path fill="#82BC11" d="M15.766,24.216c-1.748,1.747-4.579,1.745-6.326-0.004l0,0c-1.748-1.744-1.749-4.575,0-6.323l8.449-8.449
	c1.746-1.746,4.579-1.746,6.323,0l0,0c1.749,1.748,1.749,4.58,0.004,6.326L15.766,24.216z"/>
<path fill="#F9F9F9" stroke="#7FBC08" stroke-miterlimit="10" d="M10.922,19.271c0-0.524,0-9.738,0-10.1
	c0-0.469,0.491-0.819,0.974-0.544c0.388,0.221,8.145,4.661,8.808,5.043c0.435,0.248,0.427,0.842,0,1.093
	c-0.478,0.278-8.262,4.743-8.828,5.056C11.463,20.04,10.922,19.791,10.922,19.271z"/>
</svg>
