<?xml version="1.0" encoding="utf-8"?>
<!-- Generator: Adobe Illustrator 16.0.0, SVG Export Plug-In . SVG Version: 6.00 Build 0)  -->
<!DOCTYPE svg PUBLIC "-//W3C//DTD SVG 1.1//EN" "http://www.w3.org/Graphics/SVG/1.1/DTD/svg11.dtd">
<svg version="1.1" id="图层_1" xmlns="http://www.w3.org/2000/svg" xmlns:xlink="http://www.w3.org/1999/xlink" x="0px" y="0px"
	 width="28px" height="28px" viewBox="0 0 28 28" enable-background="new 0 0 28 28" xml:space="preserve">
<g>
	<polygon fill="none" points="742.518,32.652 728.15,21.307 727.738,22.018 726.889,21.848 724.631,36.135 725.609,36.33 
		727.826,22.313 742.014,33.518 	"/>
</g>
<g>
	<g>
		<path fill="#C9C9C9" d="M13.625,2.75L3.876,6.833l10.323,5.734l9.175-5.161L13.625,2.75z M2.156,20.595l10.322,5.734v-11.47
			L2.156,9.126V20.595z M14.771,14.859v11.47l10.321-5.734V9.126L14.771,14.859z"/>
	</g>
</g>
<path fill-rule="evenodd" clip-rule="evenodd" fill="#8AD30B" d="M17.373,26.559c0-0.508,0-9.406,0-9.756
	c0-0.454,0.459-0.791,0.911-0.526c0.363,0.212,7.623,4.501,8.243,4.869c0.408,0.24,0.4,0.815,0,1.056
	c-0.446,0.27-7.732,4.579-8.262,4.88C17.879,27.301,17.373,27.058,17.373,26.559z"/>
</svg>
