<?xml version="1.0" encoding="utf-8"?>
<!-- Generator: Adobe Illustrator 16.0.0, SVG Export Plug-In . SVG Version: 6.00 Build 0)  -->
<!DOCTYPE svg PUBLIC "-//W3C//DTD SVG 1.1//EN" "http://www.w3.org/Graphics/SVG/1.1/DTD/svg11.dtd">
<svg version="1.1" id="图层_1" xmlns="http://www.w3.org/2000/svg" xmlns:xlink="http://www.w3.org/1999/xlink" x="0px" y="0px"
	 width="28px" height="28px" viewBox="0 0 28 28" enable-background="new 0 0 28 28" xml:space="preserve">
<path fill="#DF7B3A" d="M9.108,6.695l7.373,11.158V6.592c0-0.73,0.156-1.279,0.472-1.646c0.313-0.366,0.737-0.549,1.271-0.549
	c0.551,0,0.986,0.183,1.304,0.549c0.318,0.366,0.479,0.915,0.479,1.646V21.48c0,1.664-0.688,2.494-2.066,2.494
	c-0.345,0-0.653-0.051-0.929-0.148c-0.276-0.098-0.535-0.256-0.775-0.471c-0.241-0.215-0.466-0.469-0.673-0.758
	c-0.206-0.287-0.412-0.582-0.619-0.883L7.752,10.686v11.094c0,0.723-0.168,1.27-0.504,1.641c-0.335,0.369-0.766,0.555-1.291,0.555
	c-0.542,0-0.978-0.188-1.304-0.563c-0.327-0.375-0.491-0.918-0.491-1.633V7.174c0-0.62,0.069-1.105,0.206-1.459
	c0.164-0.389,0.435-0.704,0.814-0.949C5.562,4.52,5.97,4.397,6.409,4.397c0.344,0,0.639,0.056,0.885,0.168
	C7.54,4.677,7.755,4.828,7.938,5.018c0.186,0.189,0.375,0.435,0.568,0.736C8.701,6.055,8.901,6.369,9.108,6.695z"/>
<path fill="#DF7B3A" d="M23.188,7.206h2.301c0.229,0,0.404,0.048,0.524,0.142c0.12,0.095,0.181,0.222,0.181,0.384
	c0,0.144-0.048,0.265-0.144,0.365c-0.096,0.1-0.239,0.15-0.434,0.15h-3.244c-0.22,0-0.392-0.062-0.516-0.184
	c-0.123-0.122-0.185-0.265-0.185-0.43c0-0.105,0.04-0.245,0.118-0.421c0.08-0.174,0.166-0.313,0.261-0.412
	c0.391-0.405,0.743-0.753,1.058-1.042s0.539-0.479,0.675-0.57c0.24-0.171,0.44-0.342,0.601-0.514
	c0.161-0.172,0.282-0.349,0.366-0.528c0.084-0.182,0.126-0.358,0.126-0.531c0-0.188-0.045-0.356-0.135-0.505
	s-0.212-0.264-0.365-0.347c-0.154-0.082-0.323-0.123-0.505-0.123c-0.385,0-0.688,0.17-0.908,0.508
	c-0.029,0.043-0.078,0.164-0.147,0.36c-0.069,0.197-0.147,0.349-0.233,0.454c-0.087,0.105-0.214,0.158-0.381,0.158
	c-0.147,0-0.27-0.048-0.366-0.145C21.739,3.879,21.69,3.747,21.69,3.58c0-0.203,0.046-0.414,0.137-0.635s0.227-0.42,0.408-0.6
	c0.181-0.18,0.409-0.324,0.687-0.434c0.277-0.11,0.604-0.166,0.977-0.166c0.449,0,0.833,0.07,1.15,0.212
	c0.206,0.094,0.386,0.224,0.542,0.388c0.155,0.164,0.276,0.355,0.363,0.57c0.087,0.217,0.13,0.44,0.13,0.672
	c0,0.365-0.09,0.696-0.271,0.994c-0.181,0.298-0.364,0.532-0.553,0.701c-0.188,0.169-0.503,0.434-0.945,0.795
	c-0.441,0.361-0.745,0.643-0.909,0.842C23.334,7,23.263,7.095,23.188,7.206z"/>
</svg>
