<?xml version="1.0" encoding="utf-8"?>
<!-- Generator: Adobe Illustrator 16.0.0, SVG Export Plug-In . SVG Version: 6.00 Build 0)  -->
<!DOCTYPE svg PUBLIC "-//W3C//DTD SVG 1.1//EN" "http://www.w3.org/Graphics/SVG/1.1/DTD/svg11.dtd">
<svg version="1.1" id="图层_1" xmlns="http://www.w3.org/2000/svg" xmlns:xlink="http://www.w3.org/1999/xlink" x="0px" y="0px"
	 width="28px" height="28px" viewBox="0 0 28 28" enable-background="new 0 0 28 28" xml:space="preserve">
<g>
	<g>
		<path fill="none" stroke="#8AD30B" stroke-miterlimit="10" stroke-dasharray="3.911,1.9555" d="M2.79,5.797v17.688
			c0,0.959,0.775,1.733,1.501,1.734h17.933c1.192-0.001,1.969-0.775,1.969-1.734V5.797c0-0.958-0.776-1.735-1.969-1.734H4.291
			C3.565,4.062,2.79,4.839,2.79,5.797z"/>
	</g>
</g>
<path fill="#C9C9C9" d="M8.159,16.1l-2.543,2.541l-1.457-1.457L6.7,14.641l-2.543-2.542l1.459-1.458l2.543,2.543l2.543-2.543
	l1.457,1.458l-2.541,2.542l2.541,2.543l-1.457,1.457L8.159,16.1z"/>
<path fill="#8AD30B" d="M12.889,3.542h10.263c1.271-0.001,2.099,0.827,2.099,1.847v18.48c0,1.021-0.828,1.847-2.099,1.848H12.889
	v-2.342V3.542z"/>
</svg>
