<?xml version="1.0" encoding="utf-8"?>
<!-- Generator: Adobe Illustrator 16.0.0, SVG Export Plug-In . SVG Version: 6.00 Build 0)  -->
<!DOCTYPE svg PUBLIC "-//W3C//DTD SVG 1.1//EN" "http://www.w3.org/Graphics/SVG/1.1/DTD/svg11.dtd">
<svg version="1.1" id="图层_1" xmlns="http://www.w3.org/2000/svg" xmlns:xlink="http://www.w3.org/1999/xlink" x="0px" y="0px"
	 width="28px" height="28px" viewBox="0 0 28 28" enable-background="new 0 0 28 28" xml:space="preserve">
<g>
	<polygon fill="none" points="742.518,32.652 728.15,21.307 727.738,22.018 726.889,21.848 724.631,36.135 725.609,36.33 
		727.826,22.313 742.014,33.518 	"/>
</g>
<path fill="#8AD30B" d="M7.404,21.811c0-0.813,0-15.041,0-15.599c0-0.725,0.758-1.264,1.504-0.84
	c0.601,0.342,12.578,7.197,13.6,7.786c0.674,0.383,0.66,1.301,0,1.689c-0.736,0.43-12.757,7.323-13.629,7.805
	C8.242,22.998,7.404,22.609,7.404,21.811z"/>
<path fill="#8AD30B" d="M21.118,17.369c-2.117,0-3.833,1.716-3.833,3.834c0,2.117,1.716,3.833,3.833,3.833
	c2.118,0,3.834-1.716,3.834-3.833C24.952,19.085,23.236,17.369,21.118,17.369z M21.118,23.786c-1.427,0-2.583-1.156-2.583-2.583
	c0-1.428,1.156-2.584,2.583-2.584c1.428,0,2.584,1.156,2.584,2.584C23.702,22.63,22.546,23.786,21.118,23.786z"/>
</svg>
