<?xml version="1.0" encoding="utf-8"?>
<!-- Generator: Adobe Illustrator 16.0.0, SVG Export Plug-In . SVG Version: 6.00 Build 0)  -->
<!DOCTYPE svg PUBLIC "-//W3C//DTD SVG 1.1//EN" "http://www.w3.org/Graphics/SVG/1.1/DTD/svg11.dtd">
<svg version="1.1" id="图层_1" xmlns="http://www.w3.org/2000/svg" xmlns:xlink="http://www.w3.org/1999/xlink" x="0px" y="0px"
	 width="28px" height="28px" viewBox="0 0 28 28" enable-background="new 0 0 28 28" xml:space="preserve">
<g>
	<polygon fill="none" points="742.518,32.652 728.15,21.307 727.738,22.018 726.889,21.848 724.631,36.135 725.609,36.33 
		727.826,22.313 742.014,33.518 	"/>
</g>
<path fill="#8AD30B" d="M22.508,13.158c-1.021-0.589-12.999-7.444-13.6-7.786c-0.746-0.424-1.504,0.115-1.504,0.84
	c0,0.558,0,14.785,0,15.599c0,0.799,0.838,1.188,1.475,0.842c0.872-0.481,12.893-7.375,13.629-7.805
	C23.168,14.459,23.182,13.541,22.508,13.158z M17.799,14.321c-0.373,0.216-6.444,3.7-6.884,3.942
	c-0.322,0.175-0.745-0.021-0.745-0.425c0-0.411,0-7.597,0-7.879c0-0.366,0.383-0.638,0.759-0.423
	c0.304,0.172,6.353,3.634,6.87,3.933C18.139,13.661,18.132,14.125,17.799,14.321z"/>
</svg>
