<?xml version="1.0" encoding="utf-8"?>
<!-- Generator: Adobe Illustrator 16.0.0, SVG Export Plug-In . SVG Version: 6.00 Build 0)  -->
<!DOCTYPE svg PUBLIC "-//W3C//DTD SVG 1.1//EN" "http://www.w3.org/Graphics/SVG/1.1/DTD/svg11.dtd">
<svg version="1.1" id="图层_1" xmlns="http://www.w3.org/2000/svg" xmlns:xlink="http://www.w3.org/1999/xlink" x="0px" y="0px"
	 width="28px" height="28px" viewBox="0 0 28 28" enable-background="new 0 0 28 28" xml:space="preserve">
<g>
	<polygon fill="none" points="742.518,32.652 728.15,21.307 727.738,22.018 726.889,21.848 724.631,36.135 725.609,36.33 
		727.826,22.313 742.014,33.518 	"/>
</g>
<g>
	<path fill="#8AD30B" d="M6.414,3.275c0.774,0,14.377,0,14.911,0c0.694,0,1.21,0.571,0.804,1.138
		c-0.324,0.455-6.883,9.525-7.442,10.301c-0.368,0.508-1.245,0.499-1.614,0C12.661,14.154,6.072,5.05,5.613,4.39
		C5.28,3.909,5.651,3.275,6.414,3.275z"/>
	<path fill="#8AD30B" d="M12.324,8.25h3.107c0.346,0,0.623,0.278,0.623,0.622v16.162c0,0.345-0.277,0.625-0.623,0.625l-3.107-1.867
		c-0.342,0-0.62-0.279-0.62-0.621V8.872C11.704,8.527,11.982,8.25,12.324,8.25z"/>
</g>
</svg>
