<?xml version="1.0" encoding="utf-8"?>
<!-- Generator: Adobe Illustrator 16.0.0, SVG Export Plug-In . SVG Version: 6.00 Build 0)  -->
<!DOCTYPE svg PUBLIC "-//W3C//DTD SVG 1.1//EN" "http://www.w3.org/Graphics/SVG/1.1/DTD/svg11.dtd">
<svg version="1.1" id="图层_1" xmlns="http://www.w3.org/2000/svg" xmlns:xlink="http://www.w3.org/1999/xlink" x="0px" y="0px"
	 width="28px" height="28px" viewBox="0 0 28 28" enable-background="new 0 0 28 28" xml:space="preserve">
<g>
	<polygon fill="none" points="742.518,32.652 728.15,21.307 727.738,22.018 726.889,21.848 724.631,36.135 725.609,36.33 
		727.826,22.313 742.014,33.518 	"/>
</g>
<g>
	<g>
		<path fill="#C9C9C9" d="M14,2.538c-6.372,0-11.536,5.166-11.536,11.537c0,6.37,5.165,11.534,11.536,11.534
			c6.369,0,11.536-5.166,11.536-11.534C25.536,7.704,20.369,2.538,14,2.538z M14,23.207c-5.043,0-9.133-4.09-9.133-9.132
			c0-5.045,4.09-9.133,9.133-9.133c2.633,0,4.999,1.121,6.666,2.903l-0.631-0.5L19.941,7.44c0,0-0.715,0.733-1.733,1.777
			c0,0-6.677,6.844-6.902,7.074c-0.126-0.402-0.912-2.896-0.912-2.896L6.793,14l3.801,6.08l11.776-9.654
			c0.489,1.118,0.764,2.351,0.764,3.649C23.134,19.117,19.044,23.207,14,23.207z"/>
	</g>
</g>
<path fill-rule="evenodd" clip-rule="evenodd" fill="#8AD30B" d="M16.581,25.006c0-0.508,0-9.406,0-9.756
	c0-0.454,0.459-0.791,0.911-0.526c0.363,0.212,7.623,4.501,8.243,4.869c0.408,0.24,0.4,0.815,0,1.056
	c-0.446,0.27-7.732,4.579-8.262,4.88C17.087,25.748,16.581,25.505,16.581,25.006z"/>
</svg>
