<?xml version="1.0" encoding="utf-8"?>
<!-- Generator: Adobe Illustrator 16.0.0, SVG Export Plug-In . SVG Version: 6.00 Build 0)  -->
<!DOCTYPE svg PUBLIC "-//W3C//DTD SVG 1.1//EN" "http://www.w3.org/Graphics/SVG/1.1/DTD/svg11.dtd">
<svg version="1.1" id="图层_1" xmlns="http://www.w3.org/2000/svg" xmlns:xlink="http://www.w3.org/1999/xlink" x="0px" y="0px"
	 width="28px" height="28px" viewBox="0 0 28 28" enable-background="new 0 0 28 28" xml:space="preserve">
<path fill="#8AD30B" d="M9.335,19.469c-2.095,2.096-5.49,2.096-7.586,0l0,0c-2.094-2.098-2.096-5.491,0-7.587L11.883,1.749
	c2.095-2.095,5.492-2.095,7.588,0l0,0c2.094,2.094,2.094,5.491,0,7.587L9.335,19.469z"/>
<path fill="#82BC11" d="M16.117,26.252c-2.096,2.096-5.491,2.094-7.586-0.004l0,0c-2.096-2.092-2.097-5.488,0-7.584L18.664,8.53
	c2.094-2.094,5.492-2.093,7.584,0l0,0c2.098,2.097,2.098,5.493,0.004,7.587L16.117,26.252z"/>
<path fill="#F9F9F9" stroke="#7FBC08" stroke-miterlimit="10" d="M10.308,20.322c0-0.629,0-11.679,0-12.113
	c0-0.563,0.589-0.983,1.168-0.653c0.465,0.265,9.768,5.59,10.563,6.048c0.521,0.298,0.512,1.01,0,1.311
	c-0.572,0.334-9.908,5.689-10.587,6.063C10.958,21.244,10.308,20.945,10.308,20.322z"/>
</svg>
